<?xml version="1.0" standalone="no"?>
<!DOCTYPE svg PUBLIC "-//W3C//DTD SVG 1.1//EN" "http://www.w3.org/Graphics/SVG/1.1/DTD/svg11.dtd" >
<svg xmlns="http://www.w3.org/2000/svg">
<metadata>Generated by IcoMoon</metadata>
<defs>
<font id="costumeboxfont" horiz-adv-x="1024">
<font-face units-per-em="1024" ascent="960" descent="-64" />
<missing-glyph horiz-adv-x="1024" />
<glyph unicode="&#x20;" horiz-adv-x="512" d="" />
<glyph unicode="&#xe900;" glyph-name="arrow_down" horiz-adv-x="2389" d="M1152.535-64l1097.602 1024h-2195.204z" />
<glyph unicode="&#xe901;" glyph-name="arrow_left" horiz-adv-x="512" d="M55.086 448l438.857-470.401v940.802z" />
<glyph unicode="&#xe902;" glyph-name="arrow_right" horiz-adv-x="512" d="M493.944 448l-438.857 470.401v-940.802z" />
<glyph unicode="&#xe903;" glyph-name="arrow_up" horiz-adv-x="2389" d="M1152.535 960l1097.602-1024h-2195.204z" />
<glyph unicode="&#xe904;" glyph-name="currency" d="M743.621 685.963l212.434-55.839 53.575 212.424-40.797 10.717-34.819-132.483c-89.020 143.61-247.882 239.218-429.198 239.218-278.776 0-504.815-226.039-504.815-504.815s226.039-504.815 504.815-504.815c186.055 0 348.428 100.548 435.998 250.344l-36.47 19.781c-80.567-136.807-229.338-228.715-399.527-228.715-255.908 0-463.405 207.497-463.405 463.405s207.497 463.405 463.405 463.405c171.64 0 321.637-93.344 401.59-232.215l-152.070 40.383-10.714-40.795zM549.954 168.849v46.401c43.916 2.484 77.415 15.386 103.219 38.706 25.792 23.323 38.693 54.337 38.693 90.32 0 38.693-10.418 67.236-33.483 85.348-23.335 20.597-56.821 36.225-105.948 46.388h-2.481v118.847c33.495-5.207 62.029-15.374 90.317-36.222l41.432 56.818c-41.432 28.53-85.348 43.916-131.749 46.401v31.014h-38.709v-31.014c-38.706-2.484-72.446-15.386-98.253-38.706-25.804-23.323-38.706-54.337-38.706-90.32 0-35.967 10.418-64.497 33.499-82.61 20.594-18.112 56.818-33.499 103.206-43.916v-121.334c-36.225 5.21-72.446 23.323-108.417 54.337l-46.401-54.337c46.401-41.432 98.253-64.51 155.072-69.72v-46.401h38.709zM552.436 393.643c25.807-7.695 41.435-15.386 51.599-23.323 7.695-10.418 12.902-20.597 12.902-36.225s-5.207-25.804-18.112-36.222c-12.902-10.421-28.53-15.386-46.388-18.112v113.881zM462.119 504.554c-7.692 7.695-12.902 20.597-12.902 33.486 0 15.386 5.21 25.804 15.386 36.237 12.902 10.418 25.804 15.374 46.388 18.112v-111.155c-25.792 7.933-41.178 15.628-48.872 23.32z" />
<glyph unicode="&#xe905;" glyph-name="email" horiz-adv-x="1404" d="M1339.839-7.032c-5.538 0-11.020 1.997-15.485 6.219l-464.706 435.573c-9.042 8.729-9.494 22.993-1.13 32.349 8.647 9.129 23.002 9.585 32.044 0.856l464.932-435.573c9.042-8.672 9.494-23.164 0.904-32.292-4.408-4.735-10.399-7.132-16.559-7.132zM65.081-15.637c-6.217 0-12.151 2.396-16.559 7.132-8.647 9.129-8.195 23.62 0.848 32.292l462.146 444.179c9.268 8.729 23.623 8.273 31.987-0.856 8.647-9.357 8.195-23.62-0.848-32.349l-462.146-444.179c-4.408-4.222-9.947-6.219-15.429-6.219zM1289.047-46.83h-1176.018c-62.279 0-113.030 51.006-113.030 114.108v778.042c0 62.816 50.75 114.108 113.030 114.108h1176.018c62.223 0 113.030-51.291 113.030-114.108v-778.042c0-63.101-50.807-114.108-113.030-114.108zM113.030 913.727c-37.3 0-67.761-30.752-67.761-68.407v-778.042c0-37.884 30.462-68.407 67.761-68.407h1176.018c37.526 0 67.761 30.524 67.761 68.407v778.042c0 37.655-30.235 68.407-67.761 68.407h-1176.018zM701.123 341.592c-30.235 0-60.245 10.041-82.964 30.124l-580.634 511.259c-9.494 8.216-10.399 22.707-2.204 32.292s22.493 10.27 31.987 2.225l580.408-511.259c28.936-25.389 77.708-25.389 106.644 0l579.673 510.403c9.494 8.216 23.623 7.36 32.044-2.225 8.138-9.585 7.29-23.848-2.204-32.121l-579.729-510.346c-22.945-20.311-52.954-30.353-83.020-30.353z" />
<glyph unicode="&#xe906;" glyph-name="facebook" d="M512-58.749c-279.87 0-506.749 226.879-506.749 506.749s226.879 506.749 506.749 506.749c279.87 0 506.749-226.879 506.749-506.749s-226.879-506.749-506.749-506.749zM512-16.738c256.668 0 464.738 208.070 464.738 464.738s-208.070 464.738-464.738 464.738c-256.668 0-464.738-208.070-464.738-464.738s208.070-464.738 464.738-464.738zM534.218 164.482v279.408h92.419l14.605 92.591h-107.025v46.435c0 24.152 7.943 47.218 42.708 47.218h69.483v92.417h-98.649c-82.932 0-105.563-54.477-105.563-130.004v-56.018h-56.913v-92.639h56.913v-279.408h92.021z" />
<glyph unicode="&#xe907;" glyph-name="googleplus" d="M512-58.749c-280.944 0-506.749 225.805-506.749 506.749s225.805 506.749 506.749 506.749 506.749-225.805 506.749-506.749-225.805-506.749-506.749-506.749zM512-16.738c257.313 0 464.738 207.426 464.738 464.738s-207.426 464.738-464.738 464.738-464.738-207.426-464.738-464.738 207.426-464.738 464.738-464.738zM179.371 441.15c-2.626 99.774 86.646 194.297 189.046 196.923 52.513 5.251 102.4-15.754 144.41-49.887-15.754-18.379-34.133-34.133-49.887-52.513-36.759 23.631-78.769 39.385-118.154 23.631-68.267-18.379-107.651-94.523-81.395-157.538 18.379-68.267 99.774-105.026 165.415-76.144 34.133 10.503 55.138 42.010 65.641 73.518-39.385 0-76.144 0-115.528 2.626 0 23.631 0 44.636 0 68.267 63.015 0 126.031 0 191.672 0 2.626-55.138-5.251-112.903-39.385-157.538-49.887-63.015-141.785-81.395-215.303-57.764-81.395 23.631-139.159 102.4-136.533 186.421zM701.874 533.048h55.138c0-18.379 0-36.759 0-55.138 18.379 0 36.759 0 57.764 0v-55.138c-18.379 0-36.759 0-57.764 0 0-18.379 0-36.759 0-57.764-18.379 0-36.759 0-57.764 0 0 18.379 0 36.759 0 55.138-18.379 0-36.759 0-57.764 0v55.138c18.379 0 36.759 0 57.764 0 2.626 18.379 2.626 39.385 2.626 57.764z" />
<glyph unicode="&#xe908;" glyph-name="help" horiz-adv-x="1061" d="M329.538 120.879l21.536-5.861c34.194-9.306 69.696-14.072 105.882-14.072h146.66c222.073 0 402.099 180.026 402.099 402.099s-180.026 402.099-402.099 402.099h-146.66c-222.073 0-402.099-180.026-402.099-402.099 0-97.258 34.579-189.027 96.526-261.372l13.188-15.402v-197.040l164.967 91.648zM109.714-64v269.993c-68.4 79.881-109.714 183.642-109.714 297.052 0 252.37 204.586 456.956 456.956 456.956h146.66c252.37 0 456.956-204.586 456.956-456.956s-204.586-456.956-456.956-456.956h-146.66c-41.63 0-81.961 5.567-120.287 15.997l-226.955-126.086z" />
<glyph unicode="&#xe909;" glyph-name="instagram" d="M512-58.749c-279.87 0-506.749 226.879-506.749 506.749s226.879 506.749 506.749 506.749c279.87 0 506.749-226.879 506.749-506.749s-226.879-506.749-506.749-506.749zM512-16.738c256.668 0 464.738 208.070 464.738 464.738s-208.070 464.738-464.738 464.738c-256.668 0-464.738-208.070-464.738-464.738s208.070-464.738 464.738-464.738zM711.535 722.016h-399.605c-41.067 0-74.481-33.332-74.481-74.3v-398.633c0-40.968 33.413-74.301 74.481-74.301h399.605c41.067 0 74.482 33.334 74.482 74.301v398.633c0 40.968-33.415 74.3-74.482 74.3zM511.733 314.715c-67.649 0-122.685 54.901-122.685 122.38 0 67.485 55.036 122.387 122.685 122.387 67.644 0 122.679-54.902 122.679-122.387 0-67.479-55.031-122.38-122.679-122.38zM739.572 527.438h-110.846c-27.977 33.416-70.040 54.71-116.992 54.71-46.959 0-89.015-21.299-116.999-54.71h-110.839v106.261c0 27.006 22.024 48.978 49.103 48.978h357.47c27.079 0 49.103-21.972 49.103-48.978v-106.261zM511.733 515.775c-43.49 0-78.871-35.295-78.871-78.674 0-43.383 35.381-78.678 78.871-78.678 43.485 0 78.866 35.295 78.866 78.678 0 43.379-35.381 78.674-78.866 78.674zM679.116 651.27h-47.465c-10.851 0-19.677-8.804-19.677-19.629v-47.35c0-10.823 8.826-19.627 19.677-19.627h47.465c10.851 0 19.677 8.804 19.677 19.627v47.35c0 10.824-8.826 19.629-19.677 19.629z" />
<glyph unicode="&#xe90a;" glyph-name="less" d="M1011.2 499.2h-998.4v-102.4h998.4z" />
<glyph unicode="&#xe90b;" glyph-name="login" d="M850.552 958.746h-678.348c-94.877 0-172.204-77.328-172.204-172.612v-338.766c0-20.684 16.927-37.611 37.611-37.611h578.257l-82.97-82.97c-14.634-14.623-14.634-38.45 0-53.285 7.317-7.317 16.927-11.073 26.54-11.073s19.226 3.756 26.54 11.073l147.124 147.122c14.621 14.634 14.621 38.45 0 53.285l-147.124 147.124c-14.631 14.631-38.447 14.631-53.285 0-14.634-14.623-14.634-38.45 0-53.287l83.174-82.753h-540.633v301.142c0 53.703 43.468 97.377 96.969 97.377h678.348c53.488 0 96.959-43.674 96.959-97.377v-677.52c0-53.705-43.47-97.379-96.959-97.379h-678.348c-53.501 0-96.969 43.674-96.969 97.379v87.774c0 20.684-16.93 37.614-37.624 37.614-20.684 0-37.611-16.93-37.611-37.614v-87.774c0-95.083 77.328-172.615 172.204-172.615h678.348c94.877 0 172.194 77.317 172.194 172.615v677.52c0 95.080-77.317 172.612-172.194 172.612z" />
<glyph unicode="&#xe90c;" glyph-name="orders" d="M1011.953 606.62l-134.525 204.8c-12.047 18.071-28.11 32.125-46.18 42.165l20.078 72.282c2.008 8.031-4.016 18.071-12.047 20.078s-16.063-4.016-20.078-12.047l-20.078-72.282c-8.031 2.008-16.063 2.008-24.094 2.008-10.039 6.024-24.094 10.039-44.173 12.047l-244.957 24.094c-14.055 0-28.11-4.016-38.149-14.055l-423.655-409.6c-14.055-14.055-24.094-34.133-24.094-56.22s8.031-42.165 22.086-58.227l82.322-86.337c0-4.016 0-10.039 2.008-14.055 4.016-22.086 16.063-40.157 34.133-52.204l88.345-60.235 66.259-68.267c18.071-18.071 38.149-26.102 56.22-26.102 4.016 0 8.031 0 10.039 2.008 2.008-2.008 6.024-2.008 10.039-4.016l94.369-62.243c12.047-10.039 28.11-14.055 44.173-14.055 20.078 0 40.157 8.031 52.204 20.078l190.745-54.212c8.031-2.008 16.063-4.016 24.094-4.016 14.055 0 28.11 4.016 38.149 8.031 20.078 10.039 34.133 28.11 40.157 50.196l162.635 566.212c4.016 16.063 2.008 32.125-6.024 44.173zM138.541 289.38c2.008 4.016 2.008 10.039 6.024 14.055l329.286 487.906c2.008 4.016 6.024 6.024 10.039 6.024l168.659 20.078-142.557-66.259c-14.055-6.024-24.094-18.071-28.11-32.125l-164.643-564.204c-2.008-8.031-2.008-16.063-2.008-24.094l-64.251 44.173-112.439 114.447zM48.188 452.016l423.655 409.6c4.016 2.008 8.031 4.016 12.047 4.016l158.62-18.071-160.627-18.071c-14.055-2.008-26.102-10.039-34.133-22.086l-329.286-485.898c-2.008-2.008-2.008-4.016-4.016-6.024l-68.267 70.275c-18.071 18.071-16.063 48.188 2.008 66.259zM483.89 18.322h-2.008l32.125-10.039c-10.039 0-20.078 2.008-30.118 10.039zM819.2 8.282c-6.024-24.094-30.118-36.141-54.212-30.118l-377.475 108.424c-10.039 2.008-20.078 10.039-26.102 20.078s-8.031 22.086-4.016 34.133l162.635 566.212c0 4.016 2.008 6.024 6.024 8.031l224.878 102.4c12.047 4.016 24.094 6.024 36.141 6.024l-30.118-102.4c-38.149 4.016-74.29-18.071-84.329-56.22-12.047-42.165 14.055-86.337 56.22-98.384 42.165-14.055 86.337 10.039 98.384 54.212 10.039 36.141-8.031 72.282-38.149 90.353l30.118 102.4c10.039-6.024 20.078-14.055 26.102-24.094l134.525-204.8c2.008-2.008 2.008-6.024 2.008-10.039l-162.635-566.212zM752.941 642.761c8.031-2.008 18.071 4.016 20.078 12.047l8.031 24.094c16.063-12.047 26.102-34.133 18.071-52.204-8.031-24.094-36.141-40.157-62.243-32.125s-42.165 34.133-34.133 60.235c6.024 18.071 26.102 32.125 46.18 34.133l-8.031-26.102c-2.008-8.031 4.016-18.071 12.047-20.078z" />
<glyph unicode="&#xe90d;" glyph-name="pinterest" d="M512-58.749c-279.87 0-506.749 226.879-506.749 506.749s226.879 506.749 506.749 506.749c279.87 0 506.749-226.879 506.749-506.749s-226.879-506.749-506.749-506.749zM512-16.738c256.668 0 464.738 208.070 464.738 464.738s-208.070 464.738-464.738 464.738c-256.668 0-464.738-208.070-464.738-464.738s208.070-464.738 464.738-464.738zM769.832 528.65c0 100.375-83.505 193.9-210.384 193.9-157.931 0-237.522-115.307-237.522-211.46 0-58.225 21.622-110.024 68.075-129.295 7.582-3.174 14.421-0.092 16.634 8.45 1.5 5.935 5.156 20.95 6.748 27.145 2.249 8.495 1.36 11.45-4.767 18.881-13.411 16.158-21.927 36.924-21.927 66.416 0 85.51 62.82 162.080 163.625 162.080 89.244 0 138.299-55.538 138.299-129.69 0-97.614-42.392-179.957-105.387-179.957-34.81 0-60.791 29.27-52.451 65.177 9.968 42.861 29.329 89.166 29.329 120.098 0 27.681-14.596 50.829-44.816 50.829-35.559 0-64.094-37.451-64.094-87.613 0-31.957 10.625-53.564 10.625-53.564s-36.393-156.974-42.743-184.434c-5.784-25.041-6.665-52.545-5.869-75.785 2.426-20.86 22.678-37.848 40.236-14.96 12.347 20.11 25.628 45.502 32.507 70.94 4.099 15.050 23.38 93.036 23.38 93.036 11.561-22.448 45.307-42.207 81.219-42.207 106.802 0.047 179.284 99.238 179.284 232.013z" />
<glyph unicode="&#xe90e;" glyph-name="plus" d="M460.8 947.2v-998.4h102.4v998.4zM1011.2 499.2h-998.4v-102.4h998.4z" />
<glyph unicode="&#xe90f;" glyph-name="returns" horiz-adv-x="751" d="M715.001 481.023c-0.069-0.003-0.069-0.003-0.753-0.006 0.132 0 0.263-0.014 0.391-0.040 0.238 0.039 0.275 0.041 0.362 0.046zM565.358 719.843c-63.549 36.627-135.963 57.127-200.496 65.913l-14.764 2.010v130.499l-309.697-217.681 309.589-217.673v141.727l17.2-0.135c50.573-0.396 91.833-2.676 126.288-7.042 75.214-9.337 132.693-35.889 174.425-73.794 21.919-19.909 36.25-39.633 44.293-55.361-2.786 103.839-56.003 179.182-146.838 231.535zM582.403 749.416c103.168-59.462 164.041-148.093 164.041-269.749 0-15.462-10.604-29.071-26.349-32.371-1.75-0.255-1.75-0.255-3.151-0.352-1.681-0.063-1.681-0.063-2.697-0.061-13.121 0-24.899 7.942-29.822 20.217-1.256 3.092-4.168 8.724-8.857 15.88-7.715 11.773-17.825 23.804-30.616 35.422-36.54 33.19-87.479 56.721-155.723 65.193-29.084 3.685-63.574 5.838-105.107 6.562v-110.349c0-12.008-6.321-23.050-16.946-29.037-10.671-5.822-23.579-5.046-33.563 1.929l-313.911 220.712c-8.833 6.173-14.015 16.382-14.015 27.157 0 10.729 5.082 20.667 13.977 27.16l313.903 220.638c10.012 7.235 23.003 7.852 33.914 1.856 10.425-5.844 16.749-16.879 16.749-28.775v-104.054c64.61-10.318 134.989-31.562 198.171-67.978zM37.132 422.942c0.069 0.003 0.069 0.003 0.753 0.006-0.132 0-0.263 0.014-0.391 0.040-0.238-0.039-0.275-0.041-0.362-0.046zM186.775 184.121c63.549-36.627 135.962-57.127 200.496-65.913l14.764-2.010v-130.499l309.697 217.681-309.589 217.673v-141.727l-17.2 0.135c-50.573 0.396-91.833 2.676-126.288 7.042-75.214 9.337-132.693 35.889-174.425 73.794-21.919 19.909-36.25 39.633-44.293 55.361 2.786-103.839 56.003-179.182 146.838-231.535zM169.73 154.548c-103.168 59.462-164.041 148.093-164.041 269.749 0 15.462 10.604 29.071 26.349 32.371 1.75 0.255 1.75 0.255 3.151 0.352 1.681 0.063 1.681 0.063 2.697 0.061 13.121 0 24.899-7.942 29.822-20.217 1.256-3.092 4.168-8.724 8.857-15.88 7.715-11.773 17.825-23.804 30.616-35.422 36.54-33.19 87.479-56.721 155.723-65.193 29.084-3.685 63.574-5.838 105.107-6.562v110.349c0 12.008 6.321 23.050 16.946 29.037 10.671 5.822 23.579 5.046 33.563-1.929l313.911-220.712c8.833-6.173 14.015-16.382 14.015-27.157 0-10.729-5.082-20.667-13.977-27.16l-313.903-220.638c-10.012-7.235-23.003-7.852-33.914-1.856-10.425 5.844-16.749 16.879-16.749 28.775v104.054c-64.61 10.318-134.989 31.562-198.171 67.978z" />
<glyph unicode="&#xe910;" glyph-name="search" d="M1014.361-8.551c11.8-11.77 11.8-31.238 0-43.008-5.906-6.11-13.851-9.049-21.564-9.049s-15.658 3.171-21.564 9.049l-248.707 248.023c-76.698-66.529-176.778-106.807-286.15-106.807-240.544 0-436.377 195.293-436.377 435.172s195.612 435.172 436.377 435.172c240.544 0 436.377-195.072 436.377-435.172 0-109.070-40.39-208.873-107.103-285.359l248.71-248.020zM61.043 524.828c0-206.387 168.376-374.297 375.113-374.297 206.947 0 375.102 168.142 375.102 374.297s-168.154 374.066-375.102 374.066c-206.737 0-375.113-167.679-375.113-374.066z" />
<glyph unicode="&#xe911;" glyph-name="telephone" d="M22.124 156.482l362.002 253.472 60.867-86.884c18.987-27.119 31.371-57.585 36.786-89.414 51.436 20.923 102.042 54.976 144.869 97.744l45.030 51.67c22.968 30.466 41.471 62.733 54.664 95.151-31.832 5.416-62.297 17.799-89.414 36.788l-86.878 60.87 253.472 361.999 103.289-72.322c22.138-19.875 40.372-42.926 52.795-67.654 116.901-179.583 57.146-457.659-141.349-656.153-198.492-198.498-476.571-258.251-654.291-142.427-26.259 13.305-49.591 31.703-68.744 54.411l-73.097 102.752zM104.263 108.845l11.496-16.34c17.275-24.666 39.966-44.212 68.137-58.617 162.070-105.498 419.898-50.096 606.104 136.115 186.208 186.208 241.611 444.033 135.037 607.965-13.327 26.302-32.873 48.993-57.545 66.273l-54.158 37.98-207.631-296.531 56.924-39.858c27.703-18.65 59.416-29.015 92.208-30.58l26.192-1.25-8.155-24.922c-14.548-44.455-38.235-88.88-70.167-131.156l-46.856-53.77c-54.547-54.547-119.491-95.611-184.931-117.028l-24.924-8.157-1.249 26.195c-1.565 32.842-11.963 64.609-30.674 92.348l-39.76 56.787-296.533-207.631 26.484-37.823z" />
<glyph unicode="&#xe912;" glyph-name="tick" horiz-adv-x="1365" d="M1302.809 816.905l-811.087-811.075c-7.147-7.147-18.715-7.147-25.837 0l-460.541 460.541c-7.125 7.112-7.125 18.69 0 25.824l111.904 111.904c7.147 7.138 18.712 7.138 25.85 0l335.725-335.712 686.258 686.271c7.16 7.122 18.699 7.122 25.837 0l111.891-111.904c7.135-7.138 7.135-18.69 0-25.85z" />
<glyph unicode="&#xe913;" glyph-name="twitter" d="M512-58.749c-279.87 0-506.749 226.879-506.749 506.749s226.879 506.749 506.749 506.749c279.87 0 506.749-226.879 506.749-506.749s-226.879-506.749-506.749-506.749zM512-16.738c256.668 0 464.738 208.070 464.738 464.738s-208.070 464.738-464.738 464.738c-256.668 0-464.738-208.070-464.738-464.738s208.070-464.738 464.738-464.738zM720.070 531.999c0 4.883-0.083 9.722-0.306 14.525 20.956 15.575 39.134 35.066 53.508 57.384-19.233-8.625-39.874-14.395-61.578-16.813 22.14 13.598 39.125 35.345 47.157 61.438-20.733-12.54-43.677-21.524-68.075-26.185-19.539 22.176-47.418 36.304-78.259 36.831-59.199 0.969-107.2-48.936-107.2-111.466 0-8.89 0.926-17.515 2.777-25.833-89.152 5.715-168.167 52.021-221.018 121.814-9.22-16.721-14.513-36.269-14.513-57.209 0-39.611 18.927-74.819 47.686-95.593-17.596 0.794-34.099 6.122-48.565 14.839v-1.458c0-55.363 36.966-101.741 86.022-112.572-8.995-2.55-18.482-3.869-28.23-3.834-6.931 0.047-13.634 0.794-20.167 2.208 13.634-45.372 53.247-78.511 100.146-79.61-36.708-30.367-82.941-48.501-133.144-48.364-8.646 0-17.207 0.574-25.583 1.626 47.463-32.482 103.805-51.401 164.373-51.401 197.148-0.047 304.969 171.147 304.969 319.674z" />
<glyph unicode="&#xe914;" glyph-name="user" d="M690.617 328.204c98.055 59.688 161.996 166.257 161.996 289.887 0.010 187.581-153.47 341.052-341.042 341.052s-341.052-153.47-341.052-341.052c0-123.63 63.951-230.208 161.996-289.887-170.52-63.941-298.413-213.159-332.516-392.204h85.266c42.627 196.107 217.419 341.049 426.305 341.049s383.679-144.942 426.308-341.049h85.264c-34.101 183.318-161.994 332.526-332.526 392.204zM255.786 618.091c0 140.682 115.104 255.786 255.786 255.786s255.786-115.104 255.786-255.786c0-140.682-115.104-255.786-255.786-255.786s-255.786 115.104-255.786 255.786z" />
<glyph unicode="&#xe915;" glyph-name="wishlist" horiz-adv-x="1143" d="M937.317 327.768c71.478 61.548 121.931 140.733 143.412 227.128 9.803 39.532 11.797 70.496 9.52 92.178-0.26 2.47-0.485 3.921-0.912 6.637-13.888 148.491-123.529 261.043-263.362 261.043-105.692 0-199.896-61.898-241.521-155.521l-19.608-44.103-19.568 44.121c-42.205 95.162-130.721 155.503-234.927 155.503-139.891 0-249.589-112.519-263.803-263.295-0.081-0.398-0.3-1.826-0.552-4.26-2.245-21.678-0.224-52.686 9.597-92.29 21.484-86.408 71.937-165.593 143.435-227.158l365.961-315.913 372.328 315.93zM825.974 957.619c163.144 0 290.188-130.415 305.697-297.606 0.361-1.76 0.801-4.589 1.208-8.461 2.791-26.567 0.474-62.536-10.549-106.986-23.684-95.256-79.007-182.085-157.162-249.381l-400.419-339.767-393.711 339.868c-78.037 67.195-133.359 154.024-157.047 249.293-11.036 44.501-13.381 80.492-10.632 107.035 0.395 3.817 0.823 6.606 0.842 6.088 15.845 169.54 142.955 299.917 306.149 299.917 107.264 0 200.59-55.035 254.67-143.814 54.889 87.915 152.788 143.814 260.954 143.814z" />
<glyph unicode="&#xe916;" glyph-name="youtube" d="M512-58.749c-279.87 0-506.749 226.879-506.749 506.749s226.879 506.749 506.749 506.749c279.87 0 506.749-226.879 506.749-506.749s-226.879-506.749-506.749-506.749zM512-16.738c256.668 0 464.738 208.070 464.738 464.738s-208.070 464.738-464.738 464.738c-256.668 0-464.738-208.070-464.738-464.738s208.070-464.738 464.738-464.738zM752.805 447.827c-2.756 11.703-8.872 21.511-18.32 29.437-9.459 7.928-20.346 12.588-32.67 13.976-39.085 3.964-98.036 5.945-176.86 5.945-78.818 0-137.661-1.981-176.539-5.945-12.531-1.388-23.472-6.048-32.822-13.976-9.351-7.926-15.51-17.739-18.489-29.437-5.522-23-8.283-57.688-8.283-104.073 0-47.179 2.76-81.877 8.283-104.078 2.767-11.694 8.878-21.512 18.332-29.433 9.454-7.933 20.341-12.491 32.659-13.68 39.096-4.162 98.047-6.246 176.866-6.246 78.807 0 137.775 2.084 176.854 6.246 12.324 1.189 23.157 5.747 32.507 13.68 9.351 7.921 15.51 17.739 18.484 29.433 5.522 22.999 8.288 57.686 8.288 104.078 0 47.178-2.766 81.87-8.288 104.073zM423.627 417.789h-34.097v-169.19h-31.863v169.19h-33.465v27.949h99.425v-27.949zM509.662 248.598h-28.357v16.064c-11.474-12.1-22.312-18.143-32.511-18.143-9.77 0-15.93 3.67-18.478 11.002-1.694 4.757-2.548 11.998-2.548 21.71v116.259h28.357v-108.235c0-6.337 0.109-9.813 0.326-10.407 0.637-4.162 2.865-6.24 6.688-6.24 5.734 0 11.796 4.162 18.167 12.486v112.396h28.357v-146.891zM618.008 292.611c0-14.473-0.952-24.392-2.854-29.743-3.621-10.895-11.159-16.349-22.627-16.349-10.201 0-20.074 5.453-29.642 16.349v-14.27h-28.357v197.139h28.357v-64.523c9.139 10.697 19.018 16.053 29.642 16.053 11.468 0 19.006-5.554 22.627-16.653 1.902-5.152 2.854-14.964 2.854-29.437v-58.567zM725.716 316.987h-57.034v-25.87c0-13.675 4.88-20.51 14.654-20.51 7.010 0 11.263 3.562 12.744 10.703 0.42 1.981 0.637 8.028 0.637 18.136h29v-3.862c0-9.717-0.217-15.464-0.637-17.253-0.632-5.345-2.859-10.696-6.693-16.052-7.645-10.509-19.126-15.759-34.423-15.759-14.65 0-26.125 5.057-34.413 15.16-6.154 7.337-9.236 18.832-9.236 34.494v51.447c0 15.662 2.974 27.157 8.916 34.495 8.288 10.107 19.653 15.158 34.106 15.158 14.236 0 25.503-5.051 33.776-15.158 5.745-7.338 8.605-18.833 8.605-34.495v-30.633zM577.218 373.187c-4.891 0-9.666-2.186-14.339-6.541v-89.504c4.673-4.359 9.448-6.534 14.339-6.534 8.278 0 12.433 6.632 12.433 19.92v62.739c0 13.284-4.143 19.921-12.433 19.921zM683.021 373.187c-9.562 0-14.339-6.744-14.339-20.216v-13.679h28.672v13.679c0 13.483-4.782 20.216-14.333 20.216zM405.149 604.531v-80.586h31.87v80.586l38.551 118.642h-32.506l-21.664-78.202-22.628 78.202h-33.775c5.952-16.653 12.851-35.186 20.716-55.604 9.988-27.356 16.463-48.373 19.436-63.038zM518.266 521.862c14.661 0 25.917 5.055 33.782 15.163 5.946 7.338 8.92 19.036 8.92 35.090v52.037c0 15.859-2.979 27.461-8.92 34.794-7.864 10.107-19.121 15.163-33.782 15.163-14.236 0-25.389-5.057-33.459-15.163-5.947-7.333-8.92-18.935-8.92-34.794v-52.037c0-15.856 2.972-27.553 8.92-35.084 8.071-10.113 19.224-15.169 33.459-15.169zM504.565 629.507c0 13.679 4.569 20.519 13.702 20.519 9.139 0 13.702-6.84 13.702-20.519v-62.444c0-13.878-4.563-20.815-13.702-20.815-9.133 0-13.702 6.936-13.702 20.815v62.444zM605.897 521.862c10.625 0 21.57 6.148 32.827 18.44v-16.358h29v148.381h-29v-113.291c-6.377-8.527-12.427-12.785-18.173-12.785-3.823 0-6.055 2.18-6.688 6.545-0.217 0.397-0.321 3.868-0.321 10.407v109.125h-29v-117.159c0-10.107 0.855-17.542 2.548-22.298 2.767-7.338 9.030-11.007 18.806-11.007z" />
<glyph unicode="&#xe917;" glyph-name="arrow_thin_down" horiz-adv-x="1843" d="M947.2 136.987l788.203 784.074 94.508-94.013-882.114-877.493-883.308 877.493 94.508 94.013z" />
<glyph unicode="&#xe918;" glyph-name="arrow_thin_left" horiz-adv-x="569" d="M132.932 440.949l435.597 437.891-52.229 52.504-487.496-490.063 487.496-490.726 52.229 52.504z" />
<glyph unicode="&#xe919;" glyph-name="arrow_thin_right" horiz-adv-x="569" d="M464.401 440.949l-435.597 437.891 52.229 52.504 487.496-490.063-487.496-490.726-52.229 52.504z" />
<glyph unicode="&#xe91a;" glyph-name="arrow_thin_up" horiz-adv-x="1843" d="M947.2 733.63l788.203-784.074 94.508 94.013-882.114 877.493-883.308-877.493 94.508-94.013z" />
<glyph unicode="&#xe91b;" glyph-name="bin" horiz-adv-x="808" d="M503.87 97.684c-10.36 0-18.818 7.622-18.818 16.96v558.923c0 9.443 8.457 16.96 18.818 16.96 10.384 0 18.818-7.516 18.818-16.96v-558.923c0-9.337-8.434-16.96-18.818-16.96zM342.186 97.684c-10.36 0-18.818 7.622-18.818 16.96v558.923c0 9.443 8.457 16.96 18.818 16.96 10.384 0 18.818-7.516 18.818-16.96v-558.923c0-9.337-8.434-16.96-18.818-16.96zM791.662 855.841h-188.323c-1.811 21.695-8.295 58.317-30.507 81.792-14.064 14.818-31.833 22.368-52.971 22.368h-265.029c-21.054 0-38.886-7.55-52.866-22.368-22.212-23.474-28.717-60.096-30.591-81.792h-154.511c-9.306 0-16.864-7.702-16.864-17.378 0-9.568 7.558-17.27 16.864-17.27h34.381l32.233-798.845c0.653-29.831 18.675-86.348 82.657-86.348h476.172c63.982 0 82.067 56.516 82.657 86.022l32.317 799.171h34.381c9.285 0 16.759 7.702 16.759 17.27 0 9.676-7.474 17.378-16.759 17.378zM691.32 23.107c-0.084-5.337-2.463-52.459-49.013-52.459h-476.172c-46.066 0-48.781 47.209-49.034 52.807l-32.149 797.739h638.602l-32.233-798.086zM291.088 910.411h190.62c27.387 0 49.589-22.202 49.589-49.589v0h-289.798c0 27.387 22.202 49.589 49.589 49.589v0z" />
<glyph unicode="&#xe91c;" glyph-name="burger" horiz-adv-x="1317" d="M42.47 771.918h1234.041v146.286h-1234.041zM42.47 374.857h1234.041v146.286h-1234.041zM42.47-22.204h1234.041v146.286h-1234.041z" />
<glyph unicode="&#xe91d;" glyph-name="cart" horiz-adv-x="1225" d="M332.785 567.79h155.265l-24.347 173.608-169.25 11.389 38.332-184.997zM525.22 567.79h180.794v157.318l-204.812 13.772 24.018-171.090zM742.815 567.79h182.246l19.834 141.261-202.081 13.578v-154.839zM962.231 567.79h175.661l40.869 125.513-197.064 13.268-19.466-138.781zM376.192 358.368h141.261l-24.231 172.62h-152.805l35.775-172.62zM554.622 358.368h151.391v172.62h-175.622l24.231-172.62zM742.815 358.368h152.863l24.212 172.62h-177.075v-172.62zM932.829 358.368h136.903l56.171 172.62h-168.843l-24.231-172.62zM495.236 116.871c-39.823 0-72.209-32.386-72.209-72.19s32.386-72.17 72.209-72.17c39.804 0 72.209 32.366 72.209 72.17s-32.405 72.19-72.209 72.19v0zM999.285 116.135c-36.55-4.145-64.093-34.865-64.093-71.454 0-39.804 32.366-72.17 72.19-72.17s72.209 32.366 72.209 72.17c0 36.589-27.563 67.309-64.093 71.454l-15.341 0.077-0.872-0.077zM898.39 44.681c0 17.103 3.971 33.586 11.815 49.043l11.409 22.488h-340.591l11.409-22.488c7.845-15.457 11.815-31.94 11.815-49.043 0-60.084-48.908-108.991-109.011-108.991s-109.011 48.908-109.011 108.991c0 34.342 15.883 66.011 43.542 86.91l15.825 11.951-15.418 12.474c-41.489 33.528-69.575 89.177-83.501 165.414-0.678 3.448-3.448 14.701-3.448 14.701l-121.659 587.066h-203.165c-10.15 0-18.401 8.251-18.401 18.401s8.251 18.401 18.401 18.401h218.138c8.677 0 16.251-6.159 18.014-14.663l32.153-155.149 918.089-61.75c5.714-0.368 10.808-3.293 14.004-8.038 3.215-4.745 4.048-10.576 2.266-15.999l-120.477-370.129c-2.479-7.593-9.51-12.706-17.51-12.706h-699.408l4.61-19.137c31.998-132.428 105.815-149.396 166.538-149.396h439.898c5.21 0.445 8.929 0.639 12.668 0.639 60.103 0 109.011-48.888 109.011-108.991 0-60.084-48.908-108.991-109.011-108.991s-108.991 48.908-108.991 108.991z" />
<glyph unicode="&#xe91e;" glyph-name="chat" horiz-adv-x="967" d="M22.756-32.627v850.403c0 65.782 53.686 119.468 119.468 119.468h682.663c65.782 0 119.468-53.686 119.468-119.468v-511.993c0-65.782-53.686-119.468-119.468-119.468h-583.19l-218.942-218.942zM213.42 254.581h611.467c28.080 0 51.202 23.122 51.202 51.202v511.993c0 28.080-23.122 51.202-51.202 51.202h-682.663c-28.080 0-51.202-23.122-51.202-51.202v-685.593l122.398 122.398z" />
<glyph unicode="&#xe91f;" glyph-name="continue" d="M512-52.87c-276.623 0-500.87 224.247-500.87 500.87s224.247 500.87 500.87 500.87c276.623 0 500.87-224.247 500.87-500.87s-224.247-500.87-500.87-500.87zM512 13.913c239.74 0 434.087 194.347 434.087 434.087s-194.347 434.087-434.087 434.087c-239.74 0-434.087-194.347-434.087-434.087s194.347-434.087 434.087-434.087zM533.975 499.518v148.83l-209.757-183.537c-1.488-1.302-2.887-2.701-4.188-4.188-16.192-18.505-14.317-46.632 4.188-62.824l209.757-183.537v136.427h148.83v148.83h-148.83z" />
<glyph unicode="&#xe920;" glyph-name="credit" horiz-adv-x="1644" d="M86.232 919.579c-25.3 0-45.811-20.51-45.811-45.811v-851.537c0-25.3 20.51-45.811 45.811-45.811h1456.701c25.3 0 45.811 20.51 45.811 45.811v851.537c0 25.3-20.51 45.811-45.811 45.811h-1456.701zM86.232 960h1456.701c47.624 0 86.232-38.607 86.232-86.232v-851.537c0-47.624-38.607-86.232-86.232-86.232h-1456.701c-47.624 0-86.232 38.607-86.232 86.232v851.537c0 47.624 38.607 86.232 86.232 86.232zM458.105 939.789v-989.718h40.421v989.718zM33.597 508.72l1589.894-6.913 0.176 40.421-1589.894 6.913zM298.629 556.444c-73.454 42.409-117.697 106.59-94.006 147.623s101.394 34.808 174.848-7.6c73.454-42.409 117.697-106.59 94.006-147.623s-101.394-34.808-174.848 7.6zM312.103 579.781c62.142-35.877 124.521-40.874 138.038-17.464s-22.001 74.935-84.143 110.812c-62.142 35.877-124.521 40.874-138.038 17.464s22.001-74.935 84.143-110.812zM298.629 487.767c-73.454-42.409-117.697-106.59-94.006-147.623s101.394-34.808 174.848 7.6c73.454 42.409 117.697 106.59 94.006 147.623s-101.394 34.808-174.848-7.6zM312.103 464.43c62.142 35.877 124.521 40.874 138.038 17.464s-22.001-74.935-84.143-110.812c-62.142-35.877-124.521-40.874-138.038-17.464s22.001 74.935 84.143 110.812zM667.985 487.767c73.454-42.409 117.697-106.59 94.006-147.623s-101.394-34.808-174.848 7.6c-73.454 42.409-117.697 106.59-94.006 147.623s101.394 34.808 174.848-7.6zM654.511 464.43c-62.142 35.877-124.521 40.874-138.038 17.464s22.001-74.935 84.143-110.812c62.142-35.877 124.521-40.874 138.038-17.464s-22.001 74.935-84.143 110.812zM671.476 556.444c73.454 42.409 117.697 106.59 94.006 147.623s-101.394 34.808-174.848-7.6c-73.454-42.409-117.697-106.59-94.006-147.623s101.394-34.808 174.848 7.6zM658.002 579.781c-62.142-35.877-124.521-40.874-138.038-17.464s22.001 74.935 84.143 110.812c62.142 35.877 124.521 40.874 138.038 17.464s-22.001-74.935-84.143-110.812z" />
<glyph unicode="&#xe921;" glyph-name="discount" d="M501.76-43.52c-277.114 0-501.76 224.646-501.76 501.76s224.646 501.76 501.76 501.76c277.114 0 501.76-224.646 501.76-501.76s-224.646-501.76-501.76-501.76zM366.322 265.728c-9.526-14.495-14.288-24.228-14.288-29.198 0-8.697 8.49-13.046 25.47-13.046 9.526 0 16.98 1.657 22.364 4.97 4.142 2.899 9.111 8.697 14.909 17.394l234.202 359.69c9.94 15.324 14.909 25.47 14.909 30.44 0 10.354-8.49 15.531-25.47 15.531-12.010 0-22.157-4.556-30.44-13.667l-6.212-6.833c-16.98-18.637-36.652-27.955-59.017-27.955-18.223 0-38.309 7.662-60.259 22.985l-16.152 11.182c-21.95 15.324-48.663 22.985-80.138 22.985-34.375 0-60.88-9.732-79.517-29.198s-27.955-47.42-27.955-83.866c0-39.759 9.422-70.199 28.266-91.32s45.867-31.683 81.070-31.683c72.063 0 108.093 40.379 108.093 121.139 0 6.626-0.828 13.874-2.485 21.743 12.010-7.455 24.228-11.182 36.652-11.182 11.596 0 22.571 3.52 32.925 10.561l-196.929-300.674zM529.084 343.381c0-38.102 9.318-67.61 27.955-88.525s45.142-31.372 79.517-31.372c72.063 0 108.093 39.551 108.093 118.654 0 77.861-35.617 116.791-106.851 116.791-35.203 0-62.123-9.94-80.759-29.819s-27.955-48.455-27.955-85.729zM425.96 540.931c0-40.587-12.424-60.88-37.274-60.88-26.506 0-39.759 20.914-39.759 62.744 0 40.173 13.46 60.259 40.38 60.259 24.435 0 36.652-20.707 36.652-62.123zM675.072 342.76c0-42.244-12.424-63.365-37.274-63.365-25.677 0-38.516 20.707-38.516 62.123 0 41.001 13.046 61.501 39.137 61.501 24.435 0 36.652-20.086 36.652-60.259z" />
<glyph unicode="&#xe922;" glyph-name="faqs" d="M512-42.442c-270.864 0-490.442 219.578-490.442 490.442s219.578 490.442 490.442 490.442c270.864 0 490.442-219.578 490.442-490.442s-219.578-490.442-490.442-490.442zM512 22.232c235.145 0 425.768 190.623 425.768 425.768s-190.623 425.768-425.768 425.768c-235.145 0-425.768-190.623-425.768-425.768s190.623-425.768 425.768-425.768zM333.167 686.347c9.205 8.784 19.375 17.113 30.511 24.988s23.31 14.841 36.524 20.899c13.214 6.058 27.467 10.828 42.759 14.311s31.847 5.225 49.663 5.225c23.458 0 45.209-3.483 65.253-10.45s37.34-16.81 51.89-29.531c14.55-12.721 25.982-28.168 34.297-46.342s12.472-38.618 12.472-61.334c0-23.019-3.341-42.858-10.022-59.517s-15.144-31.273-25.388-43.843c-10.245-12.57-21.454-23.474-33.629-32.712s-23.532-17.946-34.074-26.124c-10.541-8.178-19.598-16.356-27.17-24.534s-11.952-17.264-13.14-27.26l-8.017-69.512h-54.34l-5.345 75.419v4.998c0 12.721 3.341 24.004 10.022 33.847s15.144 19.082 25.388 27.714c10.245 8.632 21.231 17.264 32.96 25.897s22.716 18.173 32.96 28.623c10.245 10.45 18.707 22.338 25.388 35.665s10.022 29.077 10.022 47.25c0 13.024-2.524 24.837-7.572 35.438s-11.878 19.612-20.489 27.033c-8.611 7.421-18.781 13.1-30.511 17.037s-24.275 5.906-37.637 5.906c-18.113 0-33.628-2.272-46.545-6.815s-23.829-9.541-32.738-14.993c-8.908-5.452-16.109-10.45-21.602-14.993s-10.022-6.815-13.585-6.815c-7.424 0-13.214 3.483-17.371 10.45l-20.934 34.075zM440.957 212.608c0 7.444 1.371 14.458 4.112 21.043s6.493 12.311 11.255 17.178c4.762 4.867 10.461 8.732 17.099 11.595s13.708 4.294 21.212 4.294c7.503 0 14.574-1.431 21.212-4.294s12.409-6.728 17.316-11.595c4.906-4.867 8.73-10.593 11.472-17.178s4.112-13.599 4.112-21.043c0-7.73-1.371-14.816-4.112-21.257s-6.565-12.096-11.472-16.963c-4.906-4.867-10.678-8.66-17.316-11.38s-13.708-4.080-21.212-4.080c-7.503 0-14.574 1.36-21.212 4.080s-12.337 6.513-17.099 11.38c-4.762 4.867-8.513 10.521-11.255 16.963s-4.112 13.527-4.112 21.257z" />
<glyph unicode="&#xe923;" glyph-name="fun" d="M504.476-43.505c-275.606 0-499.029 223.423-499.029 499.029s223.423 499.029 499.029 499.029c275.606 0 499.029-223.423 499.029-499.029s-223.423-499.029-499.029-499.029zM504.476-10.824c257.557 0 466.348 208.791 466.348 466.348s-208.791 466.348-466.348 466.348c-257.557 0-466.348-208.791-466.348-466.348s208.791-466.348 466.348-466.348zM549.302 333.647h-63.564c-26.411 0-47.906 21.853-47.906 48.704s21.495 48.704 47.906 48.704h112.196c12.017 0 21.855 9.993 21.855 22.219 0 12.217-9.838 22.219-21.855 22.219h-58.469v45.368c0 12.217-9.829 22.219-21.855 22.219-12.017 0-21.855-10.001-21.855-22.219v-45.368h-10.017c-50.454 0-91.616-41.847-91.616-93.141 0-51.292 41.162-93.141 91.616-93.141h63.564c26.411 0 47.906-21.853 47.906-48.704 0-26.848-21.495-48.695-47.906-48.695h-114.198c-12.026 0-21.863-10.001-21.863-22.219 0-12.226 9.838-22.227 21.863-22.227h60.471v-46.288c0-12.226 9.829-22.219 21.855-22.219 12.017 0 21.855 9.993 21.855 22.219v46.288h11.11c49.906 0.748 90.343 42.221 90.343 93.141 0 51.485-40.984 93.141-91.436 93.141zM387.963 781.937v-28.352h-65.209v-40.238h54.304v-28.461h-54.304v-61.829h-37.075v158.879h102.284zM473.237 652.173c4.943 0 9.36 0.818 13.249 2.454s7.179 3.98 9.869 7.033c2.69 3.053 4.743 6.779 6.161 11.177s2.126 9.396 2.126 14.994v94.106h36.857v-94.106c0-9.741-1.581-18.683-4.743-26.825s-7.688-15.157-13.576-21.046c-5.888-5.888-13.049-10.468-21.482-13.74s-17.92-4.907-28.461-4.907c-10.614 0-20.137 1.636-28.57 4.907s-15.593 7.851-21.482 13.74c-5.888 5.888-10.396 12.904-13.522 21.046s-4.689 17.084-4.689 26.825v94.106h36.857v-93.997c0-5.598 0.709-10.596 2.126-14.994s3.471-8.142 6.161-11.232c2.69-3.090 5.979-5.452 9.869-7.088s8.306-2.454 13.249-2.454zM584.899 781.937c1.599 0 2.944-0.073 4.035-0.218s2.072-0.418 2.944-0.818c0.872-0.4 1.708-0.963 2.508-1.69s1.708-1.708 2.726-2.944l75.459-95.414c-0.291 3.053-0.509 6.016-0.654 8.887s-0.218 5.579-0.218 8.124v84.074h32.495v-158.879h-19.192c-2.835 0-5.234 0.436-7.197 1.309s-3.853 2.472-5.67 4.798l-74.914 94.651c0.218-2.762 0.4-5.47 0.545-8.124s0.218-5.143 0.218-7.47v-85.164h-32.495v158.879h19.41z" />
<glyph unicode="&#xe924;" glyph-name="gift" horiz-adv-x="1134" d="M824.62 117.977c-5.49-10.683-8.242-21.966-8.242-33.727 0-41.379 34.147-75.107 76.11-75.107 41.967 0 76.127 33.733 76.127 75.107 0 41.385-34.154 75.107-76.127 75.107-2.623 0-5.328-0.136-10.991-0.548-4.731 0-9.162 0-13.325 0-19.53-1.851-33.278-13.872-43.552-40.832zM424.451 155.429c-24.959 0-54.201-37.379-52.467-70.223 2.27-43.006 35.070-76.062 76.152-76.062 41.967 0 76.127 33.733 76.127 75.107 0 2.591-0.675 6.952-1.949 12.313-0.677 2.848-1.499 5.893-2.434 9.057-1.425 4.823-2.854 9.116-3.954 12.203-3.724 5.135-10.221 12.591-18.902 20.035-9.432 8.089-19.278 14.107-29.352 17.57h-43.22zM346.055 339.794h610.325l103.787 314.904c-0.020-0.441 0.125-1.182 0.461-1.672 0.425-0.624 1.211-1.071 1.896-1.119l-250.567 16.644-30.999 104.455-297.587-81.598-6.156-0.621-220.056 14.617 77.005-367.031c0.359-1.44 0.396-1.588 1.262-5.146l10.63 6.566zM528.669 159.474c8.285-8.638 14.992-16.877 19.15-23.056l1.947-3.781c1.42-3.792 3.474-9.765 5.535-16.741 1.11-3.758 2.1-7.424 2.938-10.951 1.87-7.871 2.931-14.725 2.931-20.694 0-61.6-50.713-111.679-113.035-111.679-61.3 0-109.743 48.822-113.010 110.724-2.057 38.978 21.941 80.247 54.155 98.734-11.024 11.17-21.962 23.085-32.299 35.47-17.461 20.918-31.739 41.42-41.75 61.085-6.999 13.75-11.816 26.921-14.098 39.269-0.153 0.77-0.594 2.683-1.194 5.18-1.228 5.048-1.228 5.048-1.76 7.234l-115.321 501.733h-148.438c-18.985 0-34.42 6.791-34.42 25.6s15.435 29.257 34.42 29.257h152.691c16.264 0 30.385-11.349 33.697-27.127l25.045-119.351 230.699-12.895 295.027 80.896c19.192 5.262 39.069-5.787 44.731-24.865l23.795-80.181 224.846-14.936c10.653-0.678 20.285-6.138 26.23-14.856 6.007-8.755 7.575-19.664 4.247-29.666l-104.535-317.174c-4.638-14.028-17.82-23.481-32.729-23.481h-601.546l-10.396-6.422c23.008-73.846 79.052-101.42 153.608-101.42h256.801c50.322 0 50.322 0 123.3-0.066 5.062 0.427 8.773 0.614 12.558 0.614 62.328 0 113.035-50.067 113.035-111.679 0-61.6-50.713-111.679-113.035-111.679-62.32 0-113.019 50.076-113.019 111.679 0 17.55 4.139 34.517 11.415 48.414 3.926 10.432 8.706 19.652 14.305 27.596-37.44 0.113-89.4 0.040-150.679-0.182-41.62-0.151-86.128-0.369-125.841-0.604zM533.651 736.667c-48.702 6.845-87.011 37.827-81.886 74.291s50.489 55.687 99.191 48.842c48.702-6.845 87.011-37.827 81.886-74.291s-50.489-55.687-99.191-48.842zM538.74 772.883c31.303-4.399 56.264 6.177 57.886 17.716s-19.457 28.586-50.76 32.986c-31.303 4.399-56.264-6.177-57.886-17.716s19.457-28.586 50.76-32.986zM714.914 790.82c-44.203-21.559-93.288-17.296-109.43 15.8s10.718 74.4 54.921 95.959c44.203 21.559 93.288 17.296 109.43-15.8s-10.718-74.4-54.921-95.959zM698.883 823.69c28.412 13.857 43.191 36.584 38.083 47.057s-32.116 12.819-60.528-1.039c-28.412-13.857-43.191-36.584-38.083-47.057s32.116-12.819 60.528 1.039zM491.188 748.636l285.073 65.814c19.68 4.544 39.317-7.727 43.861-27.407l57.587-249.439c4.544-19.68-7.727-39.317-27.407-43.861l-285.073-65.814c-19.68-4.544-39.317 7.727-43.861 27.407l-57.587 249.439c-4.544 19.68 7.727 39.317 27.407 43.861zM499.415 713.002l57.587-249.439 285.073 65.814-57.587 249.439-285.073-65.814zM615.907 777.43l74.041-320.707 35.634 8.227-74.041 320.707zM510.392 584.169l320.707 74.041-8.227 35.634-320.707-74.041z" />
<glyph unicode="&#xe925;" glyph-name="less_squared" d="M146.286 886.857c-40.396 0-73.143-32.747-73.143-73.143v-731.429c0-40.396 32.747-73.143 73.143-73.143h731.429c40.396 0 73.143 32.747 73.143 73.143v731.429c0 40.396-32.747 73.143-73.143 73.143h-731.429zM146.286 960h731.429c80.791 0 146.286-65.494 146.286-146.286v-731.429c0-80.791-65.494-146.286-146.286-146.286h-731.429c-80.791 0-146.286 65.494-146.286 146.286v731.429c0 80.791 65.494 146.286 146.286 146.286zM770.926 484.571h-514.926v-73.143h514.926z" />
<glyph unicode="&#xe926;" glyph-name="payment" horiz-adv-x="1596" d="M1463.673 955.237c70.243 0 127.099-57.522 127.099-128.365v-114.768h-1204.986v114.768c0 70.842 56.856 128.365 127.099 128.365h950.788zM1552.67 826.873c0 49.898-39.897 90.262-88.997 90.262h-950.788c-49.099 0-88.997-40.365-88.997-90.262v-76.665h1128.781v76.665zM1552.67 596.012v-312.563c0-49.895-39.898-90.259-88.997-90.259h-831.718v-38.102h831.718c70.242 0 127.099 57.522 127.099 128.361v350.665h-1090.679v-38.102h1052.577zM1271.164 456.166l-15.012-19.212-15.012 19.212c-8.872 11.355-22.269 18.065-36.772 18.065h-63.13c-25.864 0-46.922-21.305-46.922-47.695v-63.869c0-26.39 21.058-47.695 46.922-47.695h63.13c14.503 0 27.9 6.711 36.772 18.065l15.012 19.212 15.012-19.212c8.872-11.355 22.269-18.065 36.772-18.065h63.13c25.864 0 46.922 21.305 46.922 47.695v63.869c0 26.39-21.058 47.695-46.922 47.695h-63.13c-14.503 0-27.9-6.711-36.772-18.065zM1307.936 512.333h63.13c47.007 0 85.024-38.462 85.024-85.797v-63.869c0-47.335-38.017-85.797-85.024-85.797h-63.13c-19.113 0-37.189 6.416-51.784 17.738-14.595-11.322-32.671-17.738-51.784-17.738h-63.13c-47.007 0-85.024 38.462-85.024 85.797v63.869c0 47.335 38.017 85.797 85.024 85.797h63.13c19.113 0 37.189-6.416 51.784-17.738 14.595 11.322 32.671 17.738 51.784 17.738zM493.58 393.194c44.214-7.498 77.955-45.402 77.955-90.98v-249.982c0-50.949-42.119-92.418-93.868-92.418h-383.8c-51.748 0-93.868 41.469-93.868 92.418v249.918c0 45.642 33.741 83.546 77.955 91.044v71.748c0 102.298 93.234 185.476 207.853 185.476 114.538 0 207.772-83.178 207.772-185.476v-71.748zM120.818 469.294v-65.403h338.29v65.403c0 82.029-75.863 148.711-169.107 148.711-93.259 0-169.183-66.682-169.183-148.711zM104.782 364.651c-39.456 0-71.442-31.986-71.442-71.442v0-230.995c0-39.456 31.986-71.442 71.442-71.442v0h364.115c39.456 0 71.442 31.986 71.442 71.442v0 230.995c0 39.456-31.986 71.442-71.442 71.442h-364.115zM281.673 273.243c38.061 0 69.052-31.024 69.052-69.132v-76.747c0-38.107-30.991-69.132-69.052-69.132-38.124 0-69.132 31.008-69.132 69.132v76.747c0 38.124 31.008 69.132 69.132 69.132zM281.673 237.522c-18.396 0-33.411-15.015-33.411-33.411v-76.747c0-18.396 15.015-33.411 33.411-33.411 18.324 0 33.331 15.023 33.331 33.411v76.747c0 18.388-15.007 33.411-33.331 33.411z" />
<glyph unicode="&#xe927;" glyph-name="plus_squared" d="M146.286 886.857c-40.396 0-73.143-32.747-73.143-73.143v-731.429c0-40.396 32.747-73.143 73.143-73.143h731.429c40.396 0 73.143 32.747 73.143 73.143v731.429c0 40.396-32.747 73.143-73.143 73.143h-731.429zM146.286 960h731.429c80.791 0 146.286-65.494 146.286-146.286v-731.429c0-80.791-65.494-146.286-146.286-146.286h-731.429c-80.791 0-146.286 65.494-146.286 146.286v731.429c0 80.791 65.494 146.286 146.286 146.286zM548.571 411.429h222.354v73.143h-222.354v219.429h-73.143v-219.429h-219.429v-73.143h219.429v-222.354h73.143v222.354z" />
<glyph unicode="&#xe928;" glyph-name="radio_button" d="M1024 448c0-282.77-229.23-512-512-512s-512 229.23-512 512c0 282.77 229.23 512 512 512s512-229.23 512-512z" />
<glyph unicode="&#xe929;" glyph-name="square_button" d="M146.286 960h731.429c80.791 0 146.286-65.494 146.286-146.286v-731.429c0-80.791-65.494-146.286-146.286-146.286h-731.429c-80.791 0-146.286 65.494-146.286 146.286v731.429c0 80.791 65.494 146.286 146.286 146.286z" />
<glyph unicode="&#xe92a;" glyph-name="top_wishlist" horiz-adv-x="1144" d="M908.958 334.546c64.823 56.286 110.503 128.584 129.91 207.291 8.784 35.719 10.544 63.278 8.586 82.075-0.191 1.836-0.326 2.711-0.876 6.471-12.348 133.137-109.050 233.239-231.81 233.239-92.995 0-175.894-54.927-212.533-138.026l-33.111-75.097-33.042 75.127c-37.226 84.64-114.842 137.995-206.324 137.995-122.818 0-219.571-100.074-232.464-237.008 0.021 0.107-0.11-0.754-0.295-2.562-1.931-18.801-0.147-46.409 8.654-82.195 19.412-78.729 65.092-151.026 129.949-207.342l333.767-290.542 339.589 290.572zM814.767 935.906c162.227 0 288.157-130.358 303.213-294.981 0.439-2.16 0.931-5.343 1.366-9.524 2.809-26.968 0.515-62.897-10.293-106.847-23.075-93.584-76.889-178.756-152.903-244.758l-387.188-331.301-380.786 331.472c-75.815 65.831-129.629 151.003-152.71 244.609-10.816 43.982-13.138 79.923-10.372 106.861 0.423 4.121 0.901 7.26 0.777 5.62 15.62 168.528 141.615 298.849 303.886 298.849 98.22 0 184.735-46.827 239.732-123.566 56.216 76.158 146.423 123.566 245.277 123.566z" />
<glyph unicode="&#xe92b;" glyph-name="truck" horiz-adv-x="1771" d="M1672.15 723.887c-50.133 53.865-121.405 83.301-200.544 83.301h-206.532v115.227c0 20.676-17.032 37.586-37.847 37.586h-940.299c-20.82 0-37.847-16.91-37.847-37.586 0-254.386 0-445.376 0-572.967 0-56.049 0-140.522 0-253.417 0-20.672 17.028-37.582 37.847-37.582h150.719c12.302-69.511 73.148-122.448 146.623-122.448s134.337 52.938 146.623 122.448h597.757c12.302-69.511 73.168-122.448 146.623-122.448 73.475 0 134.337 52.938 146.643 122.448h94.375c20.82 0 37.847 16.91 37.847 37.582v388.299c-0.307 99.268-28.376 182.248-81.989 239.558zM304.436 904.353h913.363v-788.624h-491.324c-21.652 59.796-79.944 102.846-147.897 102.846s-126.245-43.050-147.893-102.846h-126.249v788.624zM581.484-16.536c-56.628 0-102.653 44.032-102.653 98.215s46.025 98.22 102.653 98.22c56.651 0 102.676-44.037 102.676-98.22s-46.025-98.215-102.676-98.215zM1472.699-16.642c-56.628 0-102.648 44.032-102.648 98.215s46.020 98.22 102.648 98.22c56.656 0 102.676-44.037 102.676-98.22s-46.020-98.215-102.676-98.215zM1708.898 115.729h-88.049c-22.199 60.954-81.931 104.826-151.565 104.826-69.63 0-129.362-43.872-151.544-104.826h-55.632v639.942h223.559c137.9 0 223.581-101.473 223.581-264.888v-375.055h-0.35zM249.081 709.588h55.355v-445.177h-55.355v445.177zM442.811 351.135c0 15.215-14.095 27.676-31.339 27.676h-380.134c-17.228 0-31.339-12.461-31.339-27.676 0-15.229 14.11-27.676 31.339-27.676h380.134c17.244 0 31.339 12.174 31.339 27.676zM86.373 463.719l380.14-1.881c17.232 0 31.338 11.777 31.643 26.474 0.321 14.975-13.785 26.996-31.017 26.996l-380.14 1.881c-17.534 0-31.643-11.763-31.643-26.474-0.321-14.975 13.789-26.996 31.017-26.996zM169.716 600.216h380.136c17.228 0 31.338 12.447 31.338 27.676 0 15.218-14.11 27.676-31.338 27.676h-380.136c-17.232 0-31.338-12.458-31.338-27.676 0-15.229 14.106-27.676 31.338-27.676z" />
<glyph unicode="&#xe92c;" glyph-name="user_logged" horiz-adv-x="1047" d="M434.376 301.166c-130.235 42.714-224.921 165.674-224.921 309.744 0 179.248 146.571 325.818 325.818 325.818s325.818-146.571 325.818-325.818c0-147.051-98.645-272.11-233.051-312.291 216.287-40.641 387.356-202.874 395.96-382.152l-41.67-2.088c-8.774 182.809-216.346 351.358-458.765 351.358-237.901 0-435.292-163.682-458.908-353.009l-41.385 5.389c23.262 186.493 193.909 347.682 411.103 383.049zM247.855 611.025c0-156.735 128.239-284.975 284.975-284.975s284.975 128.239 284.975 284.975c0 156.735-128.239 284.975-284.975 284.975s-284.975-128.239-284.975-284.975zM837.725 612.455c-1.223 41.199-17.692 75.095-49.592 101.188-29.591 24.191-64.476 37.19-101.206 45.704-49.761 11.536-100.386 14.606-151.288 14.468-15.182-0.403-30.36-0.351-45.565-1.042-29.54-1.336-58.861-4.071-87.886-9.596-38.918-7.401-76.3-18.915-109.291-41.827-31.218-21.685-51.26-50.639-57.781-88.418-5.373-31.108-1.426-61.335 9.279-90.733 14.276-39.207 41.445-65.915 80.438-80.705 26.556-10.080 54.179-13.116 82.438-13.421 28.819-0.317 54.141 8.278 76.588 26.196 11.363 9.065 21.345 19.749 33.221 28.188 12.425 8.847 22.83 9.014 35.554 0.616 8.737-5.759 16.198-13.063 23.925-20.027 18.893-17.008 39.754-30.463 65.642-33.458 33.429-3.86 66.315-0.727 98.303 9.987 38.040 12.729 65.93 36.898 82.317 73.685 11.218 25.187 15.72 51.723 14.906 79.197zM396.111 554.609c-42.726 0-77.345 40.774-77.345 40.774s34.619 40.767 77.345 40.767c42.72 0 77.337-40.767 77.337-40.767s-34.617-40.774-77.337-40.774zM688.111 554.609c-42.714 0-77.345 40.774-77.345 40.774s34.63 40.767 77.345 40.767c42.714 0 77.349-40.767 77.349-40.767s-34.635-40.774-77.349-40.774z" />
<glyph unicode="&#xe92d;" glyph-name="user_unlogged" horiz-adv-x="1047" d="M434.376 301.166c-130.235 42.714-224.921 165.674-224.921 309.744 0 179.248 146.571 325.818 325.818 325.818s325.818-146.571 325.818-325.818c0-147.051-98.645-272.11-233.051-312.291 216.287-40.641 387.356-202.874 395.96-382.152l-41.67-2.088c-8.774 182.809-216.346 351.358-458.765 351.358-237.901 0-435.292-163.682-458.908-353.009l-41.385 5.389c23.262 186.493 193.909 347.682 411.103 383.049zM247.855 611.025c0-156.735 128.239-284.975 284.975-284.975s284.975 128.239 284.975 284.975c0 156.735-128.239 284.975-284.975 284.975s-284.975-128.239-284.975-284.975z" />
<glyph unicode="&#xe92e;" glyph-name="close" horiz-adv-x="853" d="M364.163 448l-364.163-373.924 73.643-52.743 353.024 362.487 353.024-362.487 73.643 52.743-364.163 373.924 364.163 373.924-73.643 52.743-353.024-362.487-353.024 362.487-73.643-52.743 364.163-373.924z" />
<glyph unicode="&#xe92f;" glyph-name="pencil" horiz-adv-x="805" d="M216.082 33.224c-28.477-8.918-58.86 6.562-68.383 34.843l-67.374 200.076 337.224-171.824-201.466-63.095zM227.012-1.676l210.020 65.774c17.347 5.433 27.006 23.9 21.573 41.247-2.645 8.447-8.581 15.472-16.467 19.49l-353.198 179.963c-16.197 8.253-36.017 1.813-44.27-14.384-4.018-7.886-4.691-17.059-1.866-25.447l70.235-208.571c15.872-47.135 66.51-72.936 113.972-58.072zM713.353 686.581c8.703 17.923 1.458 39.515-16.295 48.56l-248.967 126.855c-17.426 8.879-38.753 2.477-48.408-14.531l-308.044-542.659 349.782-178.223 271.931 559.998zM464.695 894.581l248.967-126.855c35.506-18.091 49.996-61.275 32.59-97.121l-288.215-593.533-417.087 212.516 326.931 575.93c19.309 34.016 61.964 46.82 96.815 29.063zM325.835 760.109l351.924-179.314 16.603 32.585-351.924 179.314z" />
<glyph unicode="&#xe930;" glyph-name="color-less" d="M512 941.037c-273.067 0-493.037-219.97-493.037-493.037s219.97-493.037 493.037-493.037 493.037 219.97 493.037 493.037-219.97 493.037-493.037 493.037zM739.556 406.281h-436.148v60.681h436.148v-60.681z" />
<glyph unicode="&#xe931;" glyph-name="color-plus" d="M512 941.037c-273.067 0-493.037-219.97-493.037-493.037s219.97-493.037 493.037-493.037 493.037 219.97 493.037 493.037-219.97 493.037-493.037 493.037zM739.556 402.489h-185.837v-197.215h-68.267v197.215h-182.044v60.681h185.837v193.422h68.267v-193.422h185.837v-60.681z" />
<glyph unicode="&#xe932;" glyph-name="product_share-email" horiz-adv-x="1252" d="M1123.723 943.616h-1044.874c-22.183 0-41.049-7.927-56.058-23.729-14.992-15.925-22.791-35.169-22.791-57.644v-846.142c0-21.928 7.661-41.242 22.791-56.973 14.8-15.378 33.874-23.093 56.058-23.093h1044.874c22.114 0 40.51 7.715 55.363 23.093 15.131 15.731 22.809 35.046 22.809 56.973v846.142c0 44.95-33.874 81.373-78.171 81.373zM1130.22 16.102c0-4.696-1.963-6.621-6.497-6.621h-1044.874c-4.621 0-6.514 1.924-6.514 6.621v734.897l502.885-522.346c7.070-7.309 15.617-10.628 25.38-10.628h1.285c11.135 0 19.682 3.319 26.752 10.628l501.583 522.346v-734.897zM1130.22 855.623l-528.335-549.588-529.551 549.588v6.621c0 5.226 1.893 7.927 6.514 7.927h1044.874c4.534 0 6.497-2.701 6.497-7.927v-6.621z" />
<glyph unicode="&#xe933;" glyph-name="product_share-pinterest" horiz-adv-x="910" d="M859.872 604.56c0 183.999-151.327 355.44-381.254 355.44-286.2 0-430.433-211.37-430.433-387.63 0-106.733 39.182-201.686 123.365-237.012 13.741-5.819 26.133-0.169 30.143 15.49 2.718 10.88 9.344 38.403 12.229 49.76 4.075 15.573 2.465 20.989-8.639 34.612-24.304 29.62-39.736 67.685-39.736 121.747 0 156.749 113.841 297.11 296.518 297.11 161.727 0 250.624-101.807 250.624-237.736 0-178.938-76.823-329.88-190.981-329.88-63.082 0-110.165 53.655-95.051 119.477 18.065 78.569 53.15 163.452 53.15 220.153 0 50.743-26.451 93.176-81.216 93.176-64.439 0-116.151-68.651-116.151-160.605 0-58.581 19.254-98.189 19.254-98.189s-65.951-287.751-77.458-338.087c-10.482-45.903-12.079-96.321-10.636-138.923 4.397-38.238 41.097-69.379 72.915-27.423 22.376 36.865 46.443 83.409 58.909 130.040 7.429 27.588 42.368 170.545 42.368 170.545 20.95-41.15 82.104-77.369 147.183-77.369 193.545 0.087 324.896 181.914 324.896 425.305z" />
<glyph unicode="&#xe934;" glyph-name="star" d="M512 192l-300.946-158.217 57.476 335.108-243.47 237.325 336.468 48.892 150.473 304.892 150.473-304.892 336.468-48.892-243.47-237.325 57.476-335.108z" />
<glyph unicode="&#xe935;" glyph-name="wishlist-selected" horiz-adv-x="1216" d="M581.634 779.135c47.308 106.404 155.206 180.865 280.688 180.865 169.016 0 290.723-137.596 306.054-301.515 0 0 8.338-40.653-9.83-113.917-24.81-99.782-82.972-188.461-161.497-256.077l-415.415-352.491-408.335 352.491c-78.525 67.616-136.687 156.295-161.497 256.077-18.168 73.264-9.947 113.917-9.947 113.917 15.33 164.030 137.155 301.515 306.171 301.515 125.482 0 226.417-74.461 273.608-180.865z" />
<glyph unicode="&#xe936;" glyph-name="product_share-fb" horiz-adv-x="512" d="M278.935-64v512.685h167.645l26.494 169.896h-194.138v85.204c0 44.317 14.407 86.64 77.47 86.64h126.039v169.575h-178.944c-150.435 0-191.486-99.959-191.486-238.545v-102.787h-103.237v-169.983h103.237v-512.685h166.922z" />
<glyph unicode="&#xe937;" glyph-name="product_share-twitter" horiz-adv-x="1252" d="M1077.999 668.535c0 11.19-0.188 22.278-0.692 33.284 47.472 35.689 88.653 80.353 121.214 131.496-43.57-19.765-90.328-32.986-139.496-38.527 50.156 31.161 88.632 80.993 106.828 140.785-46.967-28.734-98.943-49.322-154.214-60.004-44.262 50.817-107.419 83.192-177.285 84.399-134.107 2.221-242.846-112.137-242.846-255.425 0-20.371 2.099-40.136 6.291-59.197-201.96 13.097-380.957 119.206-500.684 279.138-20.886-38.316-32.877-83.11-32.877-131.095 0-90.769 42.877-171.448 108.025-219.053-39.861 1.82-77.247 14.029-110.017 34.005v-3.342c0-126.865 83.742-233.141 194.869-257.96-20.376-5.844-41.868-8.867-63.951-8.786-15.701 0.108-30.886 1.82-45.685 5.059 30.886-103.969 120.623-179.908 226.866-182.427-83.157-69.585-187.891-111.141-301.617-110.826-19.587 0-38.98 1.316-57.955 3.727 107.521-74.433 235.154-117.787 372.364-117.787 446.61-0.108 690.862 392.185 690.862 732.535z" />
<glyph unicode="&#xe938;" glyph-name="product_share-google" horiz-adv-x="1593" d="M51.157 477.823c-9.169 248.328 201.968 477.737 443.214 480.704 122.934 10.773 242.508-38.434 335.662-118.634-38.191-43.196-77.064-86.003-118.488-125.946-82.015 51.237-180.574 90.374-276.38 55.609-154.406-45.226-247.939-233.079-190.728-388.69 47.259-162.637 239.174-251.789 389.64-183.481 77.847 28.65 129.148 102.657 151.754 182.258-89.289 1.822-178.579 0.703-267.792 3.253-0.278 54.672-0.48 109.162-0.278 163.86 148.875 0.286 297.976 0.703 447.053-0.625 9.068-134.065-10.078-277.498-94.72-385.151-115.735-153.582-329.752-198.626-503.885-138.333-184.717 62.505-319.093 254.209-315.051 455.176zM1272.668 702.609h132.81c0.202-45.851 0.581-91.78 0.884-137.526 44.405-0.416 89.012-0.703 133.391-0.911v-137.032c-44.379-0.208-88.986-0.39-133.391-0.703-0.48-45.955-0.682-91.701-0.884-137.63-44.405 0.208-88.885 0-133.012 0-0.48 45.929-0.48 91.675-0.884 137.422-44.405 0.52-89.087 0.703-133.492 0.911v137.032c44.405 0.312 88.809 0.494 133.492 0.911 0.202 45.747 0.606 91.675 1.086 137.526z" />
<glyph unicode="&#xe939;" glyph-name="filters-radio_button-border" d="M512 886.857c-242.374 0-438.857-196.483-438.857-438.857s196.483-438.857 438.857-438.857c242.374 0 438.857 196.483 438.857 438.857s-196.483 438.857-438.857 438.857zM512 960c282.77 0 512-229.23 512-512s-229.23-512-512-512c-282.77 0-512 229.23-512 512s229.23 512 512 512z" />
<glyph unicode="&#xe93a;" glyph-name="filters-square_button" d="M0 960h1024v-1024h-1024v1024z" />
<glyph unicode="&#xe93b;" glyph-name="filters-radio_button" d="M512 960c282.77 0 512-229.23 512-512s-229.23-512-512-512c-282.77 0-512 229.23-512 512s229.23 512 512 512z" />
<glyph unicode="&#xe93c;" glyph-name="filters-square_button_border" d="M73.143 9.143h877.714v877.714h-877.714v-877.714zM0 960h1024v-1024h-1024v1024z" />
<glyph unicode="&#xe93d;" glyph-name="account_arrow" horiz-adv-x="4681" d="M2340.571-64l2340.571 1024h-4681.143z" />
<glyph unicode="&#xe93e;" glyph-name="arrow_thumbnails_down" horiz-adv-x="3072" d="M1535.321 15.603l-0.218-0.426-1515.708 783.484 0.231 93.074 1515.701-780.686 1516.193 780.686-0.274-93.074-1515.925-783.058z" />
<glyph unicode="&#xe93f;" glyph-name="arrow_thumbnails_up" horiz-adv-x="3072" d="M1535.321 891.308l-0.218 0.426-1515.708-783.484 0.231-93.074 1515.701 780.686 1516.193-780.686-0.274 93.074-1515.925 783.058z" />
<glyph unicode="&#xe940;" glyph-name="arrow_thumbnails_left" horiz-adv-x="341" d="M24.535 449.864l-0.142 0.073 261.161 505.236 31.025-0.077-260.229-505.234 260.229-505.398-31.025 0.091-261.019 505.308z" />
<glyph unicode="&#xe941;" glyph-name="arrow_thumbnails_right" horiz-adv-x="341" d="M316.437 449.864l0.142 0.073-261.161 505.236-31.025-0.077 260.229-505.234-260.229-505.398 31.025 0.091 261.019 505.308z" />
<glyph unicode="&#xe942;" glyph-name="crown" horiz-adv-x="1178" d="M1098.156 564.152c-43.743 0-79.197-35.342-79.421-79.016-94.078 2.222-186.348-26.585-271.922-71.225l-132.554 391.458c31.366 10.614 53.975 40.238 53.975 75.19 0 43.875-35.566 79.442-79.444 79.442s-79.433-35.566-79.433-79.442c0-34.951 22.606-64.575 53.972-75.19l-132.709-391.93c-85.531 44.585-177.743 73.358-271.752 71.133 0 0.057 0.011 0.101 0.011 0.147 0 43.878-35.566 79.445-79.444 79.445s-79.433-35.578-79.433-79.445c0-43.878 35.566-79.444 79.444-79.444 25.829 0 48.705 12.388 63.227 31.478 56.074-48.458 131.082-154.384 144.298-378.072-32.904-1.078-59.274-28.031-59.274-61.206 0-33.847 27.447-61.295 61.298-61.295h599.613c33.847 0 61.295 27.448 61.295 61.295 0 33.186-26.378 60.139-59.308 61.206 13.107 223.734 87.992 329.816 144.089 378.411 14.499-19.294 37.487-31.829 63.474-31.829 43.875 0 79.444 35.566 79.444 79.444s-35.569 79.444-79.444 79.444z" />
</font>
</defs>
</svg>
